<?xml version="1.0" encoding="utf-8"?>
<svg version="1.1" id="Layer_1" xmlns="http://www.w3.org/2000/svg" xmlns:xlink="http://www.w3.org/1999/xlink" x="0px" y="0px"
	 viewBox="0 0 721.2 280.8" style="enable-background:new 0 0 721.2 280.8;" xml:space="preserve">
<style type="text/css">
	.st0{fill:#FFF;}
</style>
<path class="st0" d="M183.9,280.8c-1.7,0-3.2-0.5-4.6-1.5L3,146.2c-1.9-1.4-3-3.7-3-6.1c0-2.4,1.1-4.6,3-6.1L179.7,2.4
	c1.3-1,2.9-1.5,4.5-1.5c2,0,3.9,0.8,5.4,2.2l2.4-1.7c1.3-0.9,2.8-1.4,4.4-1.4c2.4,0,4.6,1.1,6.1,3l16.7,22.3
	c1.2,1.6,1.7,3.6,1.4,5.6s-1.4,3.8-3,5l-110.8,82.3h299.1c2.4,0,4.6,1.1,6.1,3c1.4,1.9,1.9,4.4,1.2,6.7l-27.3,92.8h6.1
	c2.4,0,4.7,0,7.1,0c10.1,0,20.2,0.1,30.2,0.1c16.3,0.1,32.6,0.1,48.9,0.1c13.9,0,27.9,0,41.8,0.1c19.8,0,39.5,0,59.2,0.1
	c22.6,0.1,45.2,0.1,67.8,0.2c20.5,0.1,41,0.2,61.5,0.2l0,0c1.1,0,2.2-0.1,3.7-0.1c0.1,0,0.2,0,0.3,0c1.5,0,3,0.7,3.9,1.9l3.7,4.7
	c1,1.3,1.3,3,0.8,4.6l-8.4,26.7c-1,3.2-3.9,5.3-7.2,5.3c-29.4,0.2-60.5,0.3-95,0.3c-49.8,0-100.7-0.2-149.8-0.4
	c-43.8-0.2-89.1-0.4-133.8-0.4c-2.4,0-4.6-1.1-6.1-3s-1.9-4.4-1.2-6.7l27.1-92.3H108.8l108.3,82c3.3,2.5,4,7.3,1.5,10.6l-16.5,21.9
	c-1.4,1.9-3.7,3-6.1,3c-1.4,0-2.7-0.4-3.9-1.1l-1.9-1.2l-0.6,0.7C188.2,279.8,186.1,280.8,183.9,280.8L183.9,280.8z"/>
</svg>
