<svg xmlns="http://www.w3.org/2000/svg" id="Layer_1" viewBox="0 0 731.27 290.81"><defs><style>.cls-1{fill:#17181c}.cls-1,.cls-2{stroke-width:0}.cls-2{fill:#fff}</style></defs><path class="cls-2" d="m188.89 285.81c-1.66.0-3.23-.53-4.56-1.53L8.01 151.19c-1.92-1.45-3.02-3.66-3.01-6.07.0-2.41 1.12-4.61 3.04-6.05L184.71 7.38c1.32-.98 2.88-1.5 4.53-1.5 2.02.0 3.95.81 5.37 2.23l2.37-1.69c1.29-.92 2.82-1.41 4.4-1.41 2.38.0 4.64 1.14 6.07 3.04l16.68 22.3c1.22 1.63 1.72 3.63 1.43 5.64s-1.35 3.78-2.97 4.98l-110.81 82.34h299.11c2.41.0 4.62 1.11 6.06 3.04 1.42 1.9 1.87 4.4 1.2 6.68l-27.28 92.81H397c2.36.0 4.71.0 7.06.0 10.08.03 20.16.06 30.23.09 16.29.05 32.57.1 48.86.13 13.93.03 27.87.04 41.8.06 19.75.02 39.5.04 59.24.1 22.59.07 45.19.15 67.78.24 20.49.08 40.99.16 61.48.22h0c1.12.0 2.24-.05 3.72-.15.11.0.23-.01.34-.01 1.53.0 2.98.7 3.93 1.91l3.73 4.74c1.02 1.3 1.34 3.01.85 4.59l-8.37 26.75c-.99 3.16-3.88 5.3-7.18 5.32-29.37.21-60.45.31-95 .31-49.84.0-100.67-.22-149.82-.43-43.79-.19-89.06-.38-133.79-.42-2.41.0-4.62-1.11-6.06-3.04s-1.88-4.36-1.2-6.67l27.1-92.29H113.78l108.35 81.96c3.33 2.52 3.99 7.27 1.47 10.61l-16.48 21.86c-1.42 1.89-3.69 3.02-6.05 3.02-1.38.0-2.74-.38-3.93-1.1l-1.9-1.16-.58.67c-1.44 1.69-3.55 2.66-5.77 2.66z"></path><path class="cls-1" d="m201.38 10c.78.0 1.56.36 2.06 1.03 5.46 7.3 10.93 14.61 16.68 22.3.85 1.14.62 2.76-.52 3.61l-115.12 85.54c.98 2.95.95 2.86 1.92 5.81h304.48c1.72.0 2.95 1.66 2.47 3.31-9.46 32.19-18.68 63.55-28.19 95.92-.48 1.65.75 3.31 2.47 3.31h0c3.1.0 6.15.0 9.17.0 2.43.0 4.84.0 7.24.0 26.36.07 52.73.17 79.09.22 33.68.07 67.36.06 101.04.15 43.09.12 86.18.33 129.26.46.04.0.08.0.12.0 1.32.0 2.65-.07 3.97-.16 1.59 2.02 2.14 2.72 3.73 4.74-2.7 8.62-5.42 17.32-8.37 26.75-.33 1.07-1.32 1.81-2.44 1.82-31.62.23-63.29.31-94.97.31-94.12.0-188.52-.76-283.59-.85-1.72.0-2.95-1.65-2.47-3.3 9.37-31.89 18.59-63.3 28.01-95.39.48-1.65-.75-3.3-2.47-3.3H106.56c-2.47.0-3.52 3.14-1.55 4.63 38.23 28.92 76.09 57.56 114.11 86.32 1.13.86 1.35 2.48.5 3.61-5.63 7.46-10.96 14.53-16.48 21.86-.5.67-1.28 1.03-2.06 1.03-.46.0-.92-.12-1.33-.37-1.2-.73-2.4-1.46-3.66-2.22-.42-.25-.88-.38-1.34-.38-.73.0-1.45.31-1.95.9-.57.67-1.2 1.4-1.92 2.25-.51.6-1.24.91-1.97.91-.54.0-1.08-.17-1.55-.52-58.48-44.14-117.03-88.34-176.32-133.09-1.37-1.03-1.36-3.1.01-4.12C70.03 99.1 128.76 55.32 187.69 11.39c.46-.34 1-.51 1.54-.51.71.0 1.41.29 1.92.86l1.2 1.34c.49.55 1.19.84 1.9.84.52.0 1.05-.16 1.5-.48l4.13-2.95c.45-.32.98-.48 1.5-.48m0-10c-2.46.0-4.82.7-6.86 2.04-1.64-.76-3.44-1.16-5.28-1.16-2.73.0-5.33.86-7.51 2.49L94.86 68.14 5.06 135.06C1.9 137.42.01 141.17.0 145.11c-.01 3.94 1.86 7.7 5 10.08l176.32 133.09c2.17 1.64 4.86 2.54 7.57 2.54 2.55.0 5-.77 7.07-2.17 1.6.71 3.34 1.09 5.11 1.09 3.93.0 7.68-1.87 10.05-5.01l8.6-11.41 7.88-10.45c4.17-5.53 3.07-13.43-2.45-17.6l-96.47-72.97h216.38l-.27.9-24.95 84.97c-1.11 3.78-.36 7.92 2 11.07s6.12 5.04 10.06 5.04c44.71.04 89.97.23 133.74.42 49.16.21 1e2.43 149.86.43 34.56.0 65.64-.1 95.04-.31 5.49-.04 10.28-3.59 11.92-8.83l5.16-16.5 3.2-10.25c.99-3.15.35-6.58-1.69-9.17l-2.41-3.06-1.32-1.68c-1.9-2.42-4.8-3.81-7.85-3.81-.23.0-.45.0-.68.02-1.38.09-2.39.14-3.29.14h-.09c-20.55-.06-41.1-.14-61.65-.22-22.16-.09-45.08-.18-67.62-.24-19.78-.06-39.88-.08-59.33-.1-13.91-.01-27.82-.03-41.72-.06-16.27-.03-32.53-.08-48.8-.13-10.1-.03-20.19-.06-30.29-.09-2.17.0-4.34.0-6.52.0l6.57-22.35 18.82-64.05c1.11-3.78.36-7.93-2-11.09s-6.12-5.04-10.06-5.04H126.88l98.68-73.33c2.7-2.01 4.45-4.95 4.94-8.28s-.36-6.66-2.38-9.35l-1.53-2.05-15.15-20.26c-2.36-3.16-6.13-5.04-10.07-5.04h0z"></path></svg>