<?xml version="1.0" encoding="UTF-8"?>
<svg xmlns="http://www.w3.org/2000/svg" xmlns:xlink="http://www.w3.org/1999/xlink" version="1.1" id="Layer_1" x="0px" y="0px" viewBox="0 0 701 229.4" style="enable-background:new 0 0 701 229.4;" xml:space="preserve">
<style type="text/css">
	.st0{fill:#FFF;}
</style>
<g>
	<path class="st0" d="M76.5,127.2c17.2,12.8,34.2,25.4,51.1,38.1c11.9,8.9,23.7,17.9,35.5,26.9c1.8,1.3,2.4,2.3,0.5,4.6   c-5.5,6.5-10.7,13.3-15.4,20.4c-2,3-3.4,2.2-5.3,0.8c-7.6-5.5-15.1-11.2-22.6-16.8c-14.5-10.8-29-21.6-43.4-32.6   c-16.5-12.5-32.8-25.1-49.3-37.6c-8.2-6.2-16.4-12.3-24.9-18.2c-3.5-2.5-3.8-3.7-0.1-6.5c33.5-24.7,66.8-49.7,100.2-74.6   c13.6-10.2,27.2-20.3,40.7-30.6c2.2-1.7,3.2-1.7,4.9,0.6c4.9,6.9,9.9,13.8,15.2,20.4c2.3,2.8,1.7,4.1-1,6.1   c-27.7,20.5-55.2,41.2-82.8,61.8c-1,0.8-2,1.6-4.3,3.4c10.8,0,20.2,0,29.6,0c41.2-0.1,82.4-0.4,123.6-0.1   c42.4,0.3,84.9,0.6,127.3,0.4c10.9-0.1,21.8,0.4,32.7,0.3c3.5,0,3.7,1.1,2.9,3.8c-5.8,19.5-11.7,39-17.4,58.5   c-3.8,12.9-7.5,25.8-11.5,39.7c112.8,0,225.2,0,338.3,0c-3.3,11.2-6.4,21.4-9.3,31.6c-0.6,2.2-1.9,1.7-3.3,1.7c-18,0-36,0-53.9,0   c-19.2,0-38.4,0-57.5-0.1c-19.2,0-38.3-0.2-57.5-0.2c-10.7,0-21.3,0.3-32,0.2c-31.5-0.2-62.9-0.9-94.4-0.9c-23.4,0-46.7-0.1-70.1,0   c-4.6,0-3.6-1.9-2.9-4.3c3.3-11.3,6.8-22.6,10.1-34c5.7-19.2,11.3-38.4,17-57.5c1.8-5.9,1.8-5.9-4.3-6c-51.8-0.1-103.6,0-155.5-0.2   c-35-0.1-70-0.4-105-0.6C80.6,125.9,78.8,125.5,76.5,127.2z"></path>
</g>
</svg>
