<?xml version="1.0" standalone="no"?>
<!DOCTYPE svg PUBLIC "-//W3C//DTD SVG 20010904//EN"
 "http://www.w3.org/TR/2001/REC-SVG-20010904/DTD/svg10.dtd">
<svg version="1.0" xmlns="http://www.w3.org/2000/svg"
 width="700.000000pt" height="700.000000pt" viewBox="0 0 700.000000 700.000000"
 preserveAspectRatio="xMidYMid meet">
<metadata>
Created by potrace 1.14, written by Peter Selinger 2001-2017
</metadata>
<g transform="translate(0.000000,700.000000) scale(0.100000,-0.100000)"
fill="#000000" stroke="none">
<path d="M255 5983 c0 -49 4 -94 8 -100 5 -8 3 -13 -3 -13 -25 0 -2 -24 26
-26 16 -1 40 -5 54 -8 78 -18 83 -18 75 -6 -6 9 -4 11 4 6 7 -5 10 -11 7 -14
-7 -6 59 -33 86 -35 9 -1 15 -4 13 -7 -2 -3 12 -16 31 -29 29 -20 36 -22 51
-10 16 13 17 12 4 -4 -13 -16 -10 -22 27 -57 23 -22 46 -49 52 -60 6 -11 15
-18 20 -15 5 3 12 0 16 -6 4 -8 3 -9 -4 -5 -7 4 -12 2 -12 -3 0 -10 14 -15 33
-12 5 1 6 -3 2 -9 -3 -5 8 -30 25 -55 22 -32 35 -43 48 -39 13 5 14 4 3 -4 -7
-5 -11 -14 -7 -20 8 -14 42 -7 38 8 -1 6 2 9 8 5 8 -5 8 -11 -1 -21 -6 -7 -16
-11 -21 -7 -6 3 -8 0 -6 -8 3 -8 11 -13 17 -11 7 1 10 -2 6 -8 -8 -13 14 -42
26 -34 5 3 6 -1 3 -9 -3 -8 1 -21 9 -28 7 -8 15 -18 16 -24 2 -5 7 -9 11 -8 5
2 7 -6 5 -17 -2 -11 0 -20 6 -20 5 0 9 -4 9 -10 0 -14 130 -245 141 -248 5 -2
9 -10 9 -17 0 -26 64 -128 74 -118 4 4 4 0 0 -10 -3 -10 -1 -17 6 -17 6 0 8
-4 5 -10 -3 -5 -1 -10 5 -10 6 0 9 -4 6 -9 -4 -5 -3 -11 2 -13 4 -1 25 -37 46
-78 22 -41 43 -78 48 -81 6 -3 9 -9 9 -13 -3 -20 0 -26 9 -21 6 3 10 -2 10
-13 0 -10 9 -28 20 -40 12 -12 18 -22 15 -22 -3 0 -1 -9 5 -20 6 -11 14 -19
18 -16 4 2 8 -8 9 -22 0 -14 9 -31 18 -38 9 -7 17 -16 18 -21 1 -4 4 -7 7 -6
3 1 6 -11 7 -25 0 -15 6 -28 12 -30 6 -2 11 -10 11 -17 0 -7 3 -15 8 -17 4 -1
25 -38 46 -80 22 -43 43 -78 46 -78 3 0 12 6 20 13 12 10 12 9 4 -3 -6 -8 -10
-20 -10 -26 1 -19 49 -104 58 -104 5 0 7 -4 3 -9 -3 -5 2 -16 10 -24 8 -9 15
-21 15 -27 0 -6 4 -9 9 -5 6 3 9 -3 9 -12 -1 -10 13 -42 30 -71 18 -29 32 -57
32 -62 0 -6 4 -10 8 -10 4 0 13 -14 19 -31 8 -20 16 -28 24 -23 8 4 9 3 5 -4
-7 -12 19 -72 36 -83 5 -3 10 -10 11 -15 1 -5 4 -8 7 -7 3 1 6 -6 7 -16 2 -18
91 -183 113 -208 6 -7 7 -13 3 -13 -4 0 1 -7 11 -15 11 -8 17 -15 13 -15 -4 0
-3 -9 3 -20 6 -12 17 -17 28 -14 12 4 13 3 4 -3 -9 -7 -5 -23 18 -69 43 -83
71 -128 82 -135 5 -3 10 -9 9 -12 -1 -21 31 -77 41 -71 6 4 8 3 5 -3 -7 -12
31 -93 44 -93 5 0 9 -9 9 -20 0 -11 6 -23 13 -26 8 -3 14 -10 14 -17 0 -7 25
-56 56 -110 32 -54 57 -102 57 -107 0 -5 3 -10 8 -12 4 -1 18 -24 32 -50 13
-27 28 -48 32 -48 5 0 7 -3 6 -7 -4 -12 26 -73 34 -73 5 0 8 -4 8 -9 0 -4 25
-54 56 -110 44 -80 60 -101 73 -96 12 5 13 3 5 -5 -15 -15 12 -74 28 -64 7 4
8 2 4 -5 -4 -6 -3 -17 2 -24 5 -7 29 -49 52 -94 23 -46 46 -83 52 -83 6 0 8
-3 5 -6 -7 -7 42 -97 55 -102 5 -2 5 -9 1 -15 -4 -7 0 -8 11 -4 11 4 15 3 10
-4 -7 -12 25 -89 38 -89 4 0 8 -7 8 -15 0 -8 5 -15 12 -15 6 0 9 -3 5 -6 -5
-6 29 -74 63 -124 9 -14 20 -33 23 -43 4 -10 11 -15 17 -12 6 4 7 -1 3 -10 -3
-10 -2 -20 4 -24 5 -3 20 -28 33 -56 29 -63 26 -60 47 -44 16 13 17 12 4 -4
-11 -14 -12 -23 -2 -43 6 -14 15 -23 20 -19 5 3 13 0 17 -6 4 -8 3 -9 -4 -5
-16 9 -15 5 4 -32 8 -18 20 -32 26 -32 6 0 9 -3 5 -6 -9 -9 21 -64 35 -64 6 0
9 -3 5 -6 -7 -7 50 -115 65 -125 5 -3 9 -9 9 -13 -1 -3 11 -29 26 -57 16 -29
32 -60 38 -70 5 -11 13 -19 18 -19 4 0 5 -5 2 -10 -3 -6 -1 -10 6 -10 7 0 9
-3 6 -6 -4 -4 2 -19 13 -34 11 -16 20 -32 20 -37 0 -5 9 -18 19 -30 10 -11 21
-29 24 -39 4 -17 6 -17 12 4 4 12 10 22 14 22 3 0 12 15 20 32 8 18 19 40 26
48 28 34 65 112 59 123 -4 7 -4 9 1 5 12 -11 64 75 53 89 -6 7 -4 14 3 19 8 4
9 3 5 -4 -4 -7 -2 -12 3 -12 6 0 11 7 11 15 0 8 5 15 12 15 6 0 3 10 -8 22
-17 20 -17 21 -1 8 16 -12 20 -12 27 0 9 15 -7 33 -21 24 -4 -2 -11 0 -14 6
-4 6 -1 9 7 8 7 -2 12 2 11 8 -1 6 5 11 12 11 11 0 12 -4 4 -14 -9 -10 -8 -13
4 -13 8 0 21 15 28 32 7 18 19 39 26 46 7 8 11 18 8 23 -4 5 -2 9 4 9 6 0 15
10 22 21 7 15 8 19 0 15 -7 -5 -9 -1 -5 8 3 9 9 14 13 12 11 -7 122 194 115
206 -4 6 -3 8 3 5 9 -6 73 94 73 114 0 5 4 9 10 9 5 0 7 6 4 14 -3 7 2 16 10
19 9 4 13 15 11 26 -2 13 1 18 10 15 8 -3 16 4 21 18 4 13 18 40 30 60 27 42
30 56 11 39 -10 -8 -14 -7 -14 3 0 7 10 13 21 12 13 -1 22 6 24 18 2 11 10 26
18 34 13 12 18 34 15 54 0 5 5 7 12 5 6 -1 11 4 10 11 -2 6 2 12 7 12 6 0 10
7 10 15 0 8 5 15 11 15 6 0 8 7 5 16 -3 8 -2 12 3 9 9 -5 27 32 23 47 -1 5 2
8 7 8 12 0 52 69 46 80 -3 4 2 10 10 14 8 3 15 14 15 25 0 10 7 21 15 24 8 4
12 15 10 26 -2 13 1 18 9 15 15 -6 39 43 30 58 -4 6 -3 8 3 5 8 -5 41 44 45
68 1 6 10 19 20 29 10 11 18 26 18 33 0 7 5 13 11 13 5 0 7 5 4 10 -4 6 -10 8
-14 6 -4 -3 -8 1 -8 9 0 11 4 12 13 4 9 -7 16 -4 28 12 8 12 13 26 10 31 -3 4
-1 8 4 8 13 0 53 76 45 84 -4 3 -1 6 5 6 6 0 16 10 23 21 9 17 8 20 -3 14 -7
-3 -4 2 7 12 11 10 29 36 40 58 11 22 26 44 33 48 6 4 12 16 12 27 0 10 7 26
16 34 8 9 12 21 8 27 -5 8 -3 9 6 4 10 -6 12 -4 7 9 -4 10 -3 15 3 11 5 -3 14
3 19 14 14 26 14 34 -1 25 -7 -4 -8 -3 -4 5 4 6 11 9 16 6 10 -6 24 31 15 44
-3 5 0 13 6 17 8 4 9 3 5 -4 -4 -7 -2 -12 3 -12 6 0 11 7 11 15 0 8 5 15 11
15 5 0 7 5 4 10 -4 6 -10 8 -14 6 -4 -3 -8 1 -8 9 0 11 4 12 13 4 14 -11 29 4
19 20 -3 5 0 13 6 17 8 5 10 2 5 -7 -4 -8 -1 -5 8 5 8 10 13 23 10 27 -3 5 0
9 6 9 10 0 27 33 28 54 0 5 5 12 10 15 13 8 73 108 76 126 1 8 10 21 19 27 9
7 18 25 19 40 1 15 6 24 11 21 4 -3 11 4 14 16 3 12 10 21 15 21 5 0 7 4 3 9
-3 5 1 15 8 23 8 7 12 19 9 26 -2 7 0 11 5 10 4 -2 8 0 8 3 0 3 6 13 13 22 8
9 10 22 6 28 -4 8 -3 9 4 5 7 -4 16 3 21 17 6 14 15 28 21 32 5 3 8 11 5 16
-4 5 0 12 8 15 9 3 18 17 22 32 4 15 10 29 14 32 12 9 93 151 95 168 2 9 8 18
14 20 6 2 8 10 5 19 -4 9 -2 14 3 10 6 -3 16 3 23 15 7 11 8 18 3 14 -5 -3 -9
1 -9 8 0 8 7 12 15 8 10 -3 13 -1 8 6 -4 7 -2 12 4 12 7 0 9 7 6 16 -3 8 -2
13 3 10 8 -6 18 9 19 28 0 5 4 12 9 15 15 10 75 113 61 105 -7 -4 -3 4 10 18
12 13 22 28 22 32 0 4 10 20 21 35 13 18 18 34 14 43 -5 7 -4 10 0 5 12 -10
68 81 61 99 -3 8 0 13 7 11 6 -1 13 8 15 21 2 12 8 22 13 22 6 0 17 16 25 36
12 29 13 39 2 52 -10 14 -10 15 2 5 17 -15 34 -17 25 -3 -3 6 -1 10 5 10 7 0
9 7 6 16 -3 8 -2 13 3 10 4 -3 13 5 19 17 6 12 27 49 47 82 19 33 50 89 68
125 17 36 39 70 47 77 8 7 11 13 5 13 -7 0 -7 3 0 8 11 8 29 36 62 101 13 25
31 53 41 64 12 15 13 18 2 12 -8 -4 -12 -5 -8 0 4 4 2 15 -4 24 -10 13 -10 14
2 4 17 -15 34 -17 25 -3 -3 6 -1 10 5 10 7 0 9 7 6 17 -4 10 -4 14 0 10 10
-10 36 31 28 45 -4 6 -3 8 4 4 6 -3 13 3 17 14 3 11 11 20 17 20 5 0 7 8 4 17
-4 10 -4 14 0 11 6 -7 54 43 54 57 0 4 16 27 36 51 28 34 34 47 25 57 -8 10
-7 14 4 14 8 0 12 -4 9 -9 -3 -4 -2 -8 3 -8 4 0 18 14 30 31 29 42 113 129
124 129 5 0 9 5 9 11 0 5 -4 8 -8 5 -4 -2 -8 4 -8 15 0 18 2 19 12 4 10 -14
14 -14 26 -2 27 27 162 117 176 117 7 0 11 4 8 9 -3 5 1 12 10 15 8 3 13 2 10
-2 -3 -5 10 -4 29 2 18 6 31 15 27 21 -3 5 3 3 13 -5 17 -14 18 -13 11 5 -6
16 -5 18 5 8 18 -18 56 -16 62 2 4 8 3 17 -2 19 -4 3 -5 25 -2 48 3 24 5 67 3
96 l-3 52 -724 0 -724 0 2 -75 c1 -74 4 -82 23 -67 5 4 1 -1 -9 -10 -14 -13
-15 -18 -6 -18 9 0 10 -3 4 -8 -19 -13 -12 -47 10 -47 13 0 19 6 17 15 -2 8 0
11 5 7 4 -5 8 -14 8 -19 0 -6 13 -13 29 -15 16 -2 41 -10 56 -18 15 -8 30 -11
34 -8 3 4 6 1 6 -7 0 -10 3 -10 14 -1 11 9 16 9 22 0 4 -8 3 -9 -4 -5 -7 4
-12 3 -12 -2 0 -5 13 -15 29 -22 16 -6 41 -24 56 -40 16 -16 32 -27 36 -24 4
2 11 -1 15 -7 4 -7 3 -9 -4 -5 -7 4 -9 -4 -5 -27 4 -27 -5 -53 -50 -139 -30
-59 -71 -133 -90 -165 -29 -48 -333 -579 -425 -743 -14 -25 -88 -155 -165
-290 -77 -135 -151 -265 -165 -289 -14 -25 -38 -67 -53 -93 -16 -27 -29 -51
-29 -54 0 -3 -8 -18 -19 -32 -10 -15 -33 -54 -51 -87 -18 -33 -196 -346 -395
-695 -200 -349 -375 -657 -390 -685 -15 -27 -31 -54 -35 -58 -4 -5 -24 20 -43
55 -19 34 -47 86 -62 113 -15 28 -38 68 -50 90 -12 22 -97 177 -189 345 -93
168 -181 328 -196 355 -41 75 -129 234 -158 285 -13 25 -38 70 -55 100 -27 50
-267 486 -323 588 -23 40 -38 67 -104 187 -15 28 -39 70 -52 95 -34 63 -196
356 -226 410 -14 25 -38 70 -55 100 -17 30 -47 86 -69 123 -21 38 -38 70 -38
71 0 2 -22 41 -48 87 -76 133 -143 275 -139 296 1 11 10 32 20 46 9 15 17 31
17 37 0 6 4 8 10 5 5 -3 10 -2 10 3 0 5 14 15 30 22 32 13 57 38 26 27 -10 -4
-15 -3 -11 4 4 5 15 7 25 4 20 -6 70 13 70 27 0 5 -6 6 -12 2 -7 -4 -4 2 6 14
21 24 36 31 17 8 -7 -8 -8 -17 -3 -20 8 -5 66 12 90 27 7 5 12 3 12 -4 0 -8 5
-7 17 2 9 8 19 13 22 11 3 -2 7 2 10 9 2 7 -1 9 -10 4 -11 -6 -12 -5 -1 6 16
17 16 32 0 23 -10 -6 -10 -4 -2 7 6 8 12 49 12 92 l1 77 -1012 0 -1013 0 1
-87z m45 -37 c0 -2 -8 -10 -17 -17 -16 -13 -17 -12 -4 4 13 16 21 21 21 13z
m1947 -3 c-4 -3 -1 -13 6 -22 11 -14 10 -14 -5 -2 -16 12 -16 31 -1 31 4 0 3
-3 0 -7z m3103 -24 c0 -5 -4 -9 -8 -9 -5 0 -9 7 -9 15 0 8 4 12 9 9 4 -3 8 -9
8 -15z m-4940 -21 c0 -4 -4 -8 -9 -8 -6 0 -12 4 -15 8 -3 5 1 9 9 9 8 0 15 -4
15 -9z m1791 -5 c13 -16 12 -17 -3 -4 -10 7 -18 15 -18 17 0 8 8 3 21 -13z
m44 8 c3 -5 2 -12 -3 -15 -5 -3 -9 1 -9 9 0 17 3 19 12 6z m-1878 -18 c-4 -3
-1 -13 6 -22 11 -14 10 -14 -5 -2 -16 12 -16 31 -1 31 4 0 3 -3 0 -7z m83 3
c0 -2 -7 -7 -16 -10 -8 -3 -12 -2 -9 4 6 10 25 14 25 6z m30 0 c0 -2 -8 -10
-17 -17 -16 -13 -17 -12 -4 4 13 16 21 21 21 13z m6100 1 c0 -2 -10 -12 -22
-23 l-23 -19 19 23 c18 21 26 27 26 19z m115 -6 c-9 -8 -36 -10 -30 -2 2 4 11
8 20 8 8 0 13 -3 10 -6z m-210 -43 c-1 -13 2 -28 6 -34 5 -6 4 -11 -4 -11 -8
0 -13 12 -11 31 1 33 2 36 7 36 2 0 3 -10 2 -22z m-5995 -19 c0 -5 -4 -9 -10
-9 -5 0 -9 6 -7 13 1 6 -4 11 -11 9 -8 -1 -11 2 -7 8 7 12 35 -5 35 -21z m36
7 c0 -14 -3 -23 -7 -20 -6 3 -6 22 0 42 3 10 7 -2 7 -22z m59 -5 c3 -5 2 -12
-3 -15 -5 -3 -9 1 -9 9 0 17 3 19 12 6z m4976 -8 c13 -16 12 -17 -3 -4 -10 7
-18 15 -18 17 0 8 8 3 21 -13z m979 13 c0 -2 -8 -10 -17 -17 -16 -13 -17 -12
-4 4 13 16 21 21 21 13z m-5975 -46 c2 -12 1 -20 -2 -16 -4 4 -8 16 -10 28 -4
28 6 18 12 -12z m1442 11 c0 -11 -5 -18 -9 -15 -4 3 -5 11 -1 19 7 21 12 19
10 -4z m4423 -15 c0 -2 -8 -10 -17 -17 -16 -13 -17 -12 -4 4 13 16 21 21 21
13z m-5785 -15 c3 -5 2 -12 -3 -15 -5 -3 -9 1 -9 9 0 17 3 19 12 6z m1345 3
c0 -8 -19 -13 -24 -6 -3 5 1 9 9 9 8 0 15 -2 15 -3z m3575 -12 c-3 -3 -11 0
-18 7 -9 10 -8 11 6 5 10 -3 15 -9 12 -12z m801 -26 c2 -14 -20 -16 -33 -2 -4
4 -1 6 7 4 9 -2 14 3 12 12 -2 8 0 11 4 7 4 -4 9 -14 10 -21z m33 10 c9 -11 9
-16 -1 -22 -7 -4 -10 -4 -6 1 4 4 3 14 -3 22 -6 7 -9 13 -6 13 2 0 10 -6 16
-14z m-5674 -84 c-3 -3 -11 0 -18 7 -9 10 -8 11 6 5 10 -3 15 -9 12 -12z m75
-86 c0 -2 -8 -10 -17 -17 -16 -13 -17 -12 -4 4 13 16 21 21 21 13z m5406 -21
c-1 -8 -5 -17 -8 -21 -5 -4 -4 16 1 34 3 9 9 -1 7 -13z m-5395 -8 c-6 -8 -8
-16 -5 -19 3 -3 1 -9 -4 -12 -6 -3 -9 0 -8 6 2 16 15 38 23 38 3 0 0 -6 -6
-13z m5364 3 c-3 -5 -12 -10 -18 -10 -7 0 -6 4 3 10 19 12 23 12 15 0z m-5288
-130 c2 -11 -1 -20 -5 -20 -4 0 -8 11 -8 25 0 28 8 24 13 -5z m5213 -24 c0 -2
-8 -10 -17 -17 -16 -13 -17 -12 -4 4 13 16 21 21 21 13z m-64 -68 c3 -4 -1 -5
-10 -4 -8 1 -18 5 -22 8 -3 4 1 5 10 4 8 -1 18 -5 22 -8z m-36 -74 c0 -8 -19
-13 -24 -6 -3 5 1 9 9 9 8 0 15 -2 15 -3z m-4970 -80 c0 -8 -19 -13 -24 -6 -3
5 1 9 9 9 8 0 15 -2 15 -3z m4895 -13 c3 -5 2 -12 -3 -15 -5 -3 -9 1 -9 9 0
17 3 19 12 6z m-4870 -11 c3 -6 -1 -7 -9 -4 -18 7 -21 14 -7 14 6 0 13 -4 16
-10z m12 -65 c0 -8 -4 -12 -9 -9 -4 3 -8 9 -8 15 0 5 4 9 8 9 5 0 9 -7 9 -15z
m43 -35 c0 -5 -5 -10 -11 -10 -5 0 -7 5 -4 10 3 6 8 10 11 10 2 0 4 -4 4 -10z
m4746 -42 c3 -4 -1 -5 -10 -4 -8 1 -18 5 -22 8 -3 4 1 5 10 4 8 -1 18 -5 22
-8z m-4682 -56 c2 -4 -4 -8 -14 -8 -10 0 -16 4 -14 8 3 4 9 8 14 8 5 0 11 -4
14 -8z m4602 -84 c3 -4 -1 -5 -10 -4 -8 1 -18 5 -22 8 -3 4 1 5 10 4 8 -1 18
-5 22 -8z m-4551 -17 c3 -5 2 -12 -3 -15 -5 -3 -9 1 -9 9 0 17 3 19 12 6z m16
-48 c12 -16 12 -17 -2 -6 -9 7 -20 9 -24 5 -5 -4 -5 -1 -1 6 9 16 11 15 27 -5z
m4489 3 c0 -2 -6 -9 -14 -15 -11 -9 -16 -9 -22 0 -4 7 -3 9 4 5 6 -3 13 -2 17
4 6 10 15 14 15 6z m-4469 -49 c-10 -9 -11 -8 -5 6 3 10 9 15 12 12 3 -3 0
-11 -7 -18z m25 -73 c1 -9 0 -13 -4 -10 -3 4 -7 14 -8 22 -1 9 0 13 4 10 3 -4
7 -14 8 -22z m4284 -169 c0 -7 -30 -13 -34 -7 -3 4 4 9 15 9 10 1 19 0 19 -2z
m-4163 -35 c-1 -21 -10 -18 -13 5 -1 8 2 15 6 15 5 0 8 -9 7 -20z m4103 -50
c0 -5 -5 -10 -11 -10 -5 0 -7 5 -4 10 3 6 8 10 11 10 2 0 4 -4 4 -10z m-27
-55 c-3 -9 -8 -14 -10 -11 -3 3 -2 9 2 15 9 16 15 13 8 -4z m-13 -39 c0 -3 -4
-8 -10 -11 -5 -3 -10 -1 -10 4 0 6 5 11 10 11 6 0 10 -2 10 -4z m-36 -44 c3
-5 -1 -9 -9 -9 -8 0 -12 4 -9 9 3 4 7 8 9 8 2 0 6 -4 9 -8z m-28 -66 c0 -14
-3 -23 -7 -20 -6 3 -6 22 0 42 3 10 7 -2 7 -22z m-3846 8 c0 -8 -19 -13 -24
-6 -3 5 1 9 9 9 8 0 15 -2 15 -3z m3825 -53 c3 -5 2 -12 -3 -15 -5 -3 -9 1 -9
9 0 17 3 19 12 6z m-38 -46 c0 -8 -4 -12 -9 -9 -5 3 -6 10 -3 15 9 13 12 11
12 -6z m-3682 -93 c-3 -3 -11 0 -18 7 -9 10 -8 11 6 5 10 -3 15 -9 12 -12z
m3581 -92 c-1 -17 -8 -36 -16 -43 -10 -10 -11 -9 -4 3 5 8 9 23 10 33 3 31 4
37 8 37 3 0 3 -14 2 -30z m-3475 -77 c13 -16 12 -17 -3 -4 -10 7 -18 15 -18
17 0 8 8 3 21 -13z m3423 -24 c3 -3 -5 -5 -19 -5 -13 0 -22 3 -19 7 4 8 30 6
38 -2z m-3404 -35 c0 -8 -19 -13 -24 -6 -3 5 1 9 9 9 8 0 15 -2 15 -3z m3370
-39 c0 -2 -6 -8 -13 -14 -10 -8 -14 -7 -14 2 0 8 6 14 14 14 7 0 13 -1 13 -2z
m-154 -239 c0 -14 -3 -23 -7 -20 -6 3 -6 22 0 42 3 10 7 -2 7 -22z m-3036 -11
c0 -2 -9 -3 -19 -2 -11 0 -18 5 -15 9 4 6 34 0 34 -7z m0 -31 c0 -8 -19 -13
-24 -6 -3 5 1 9 9 9 8 0 15 -2 15 -3z m2984 -42 c3 -5 -1 -9 -9 -9 -8 0 -12 4
-9 9 3 4 7 8 9 8 2 0 6 -4 9 -8z m-28 -67 c-1 -14 -8 -30 -15 -37 -11 -11 -12
-10 -5 2 5 8 9 23 10 33 3 37 12 39 10 2z m-2820 -129 c1 -7 -4 -13 -12 -13
-9 0 -11 4 -4 12 5 7 8 15 5 18 -3 4 -2 5 2 2 4 -3 8 -11 9 -19z m2744 -20 c0
-2 -7 -7 -16 -10 -8 -3 -12 -2 -9 4 6 10 25 14 25 6z m-2720 -20 c0 -2 -7 -7
-16 -10 -8 -3 -12 -2 -9 4 6 10 25 14 25 6z m2630 -102 c0 -8 -19 -13 -24 -6
-3 5 1 9 9 9 8 0 15 -2 15 -3z m-2515 -73 c3 -5 2 -12 -3 -15 -5 -3 -9 1 -9 9
0 17 3 19 12 6z m36 -78 c13 -16 12 -17 -3 -4 -10 7 -18 15 -18 17 0 8 8 3 21
-13z m6 -30 c-4 -3 -2 -11 3 -18 7 -8 5 -12 -4 -12 -8 0 -12 7 -11 16 5 22 4
21 12 21 3 0 3 -3 0 -7z m2367 -21 c3 -5 -1 -9 -9 -9 -8 0 -12 4 -9 9 3 4 7 8
9 8 2 0 6 -4 9 -8z m-2289 -130 c-3 -3 -11 0 -18 7 -9 10 -8 11 6 5 10 -3 15
-9 12 -12z m2142 -97 c0 -8 -4 -12 -9 -9 -5 3 -6 10 -3 15 9 13 12 11 12 -6z
m-2056 -32 c13 -16 12 -17 -3 -4 -10 7 -18 15 -18 17 0 8 8 3 21 -13z m2035
-27 c0 -14 -3 -23 -7 -20 -6 3 -6 22 0 42 3 10 7 -2 7 -22z m-46 -72 c0 -8
-19 -13 -24 -6 -3 5 1 9 9 9 8 0 15 -2 15 -3z m-1912 -29 c-3 -3 -9 2 -12 12
-6 14 -5 15 5 6 7 -7 10 -15 7 -18z m15 -28 c4 3 7 4 7 0 0 -17 -20 -14 -36 6
-19 22 -19 22 2 4 11 -9 24 -14 27 -10z m1844 -39 c2 -17 0 -19 -7 -8 -5 8 -6
18 -4 22 8 12 10 10 11 -14z m-1816 -31 c-6 -8 -8 -17 -4 -20 3 -4 1 -7 -5 -7
-15 0 -15 13 0 28 16 16 23 15 9 -1z m54 -89 c5 4 5 1 1 -6 -6 -10 -11 -10
-22 -1 -8 6 -14 14 -14 16 0 3 6 0 13 -6 8 -6 18 -7 22 -3z m1600 -167 c-9 -8
-36 -10 -30 -2 2 4 11 8 20 8 8 0 13 -3 10 -6z m-1498 -26 c0 -8 -4 -12 -9 -9
-4 3 -8 9 -8 15 0 5 4 9 8 9 5 0 9 -7 9 -15z m37 -33 c3 -5 -1 -9 -9 -9 -8 0
-12 4 -9 9 3 4 7 8 9 8 2 0 6 -4 9 -8z m1403 -37 c0 -8 -4 -12 -9 -9 -5 3 -6
10 -3 15 9 13 12 11 12 -6z m-1357 -39 c0 -2 -7 -7 -16 -10 -8 -3 -12 -2 -9 4
6 10 25 14 25 6z m80 -150 c0 -2 -8 -10 -17 -17 -16 -13 -17 -12 -4 4 13 16
21 21 21 13z m1180 -10 c0 -3 -4 -8 -10 -11 -5 -3 -10 -1 -10 4 0 6 5 11 10
11 6 0 10 -2 10 -4z m-1175 -26 c-3 -5 -12 -10 -18 -10 -7 0 -6 4 3 10 19 12
23 12 15 0z m1132 -17 c-4 -3 -2 -11 3 -18 7 -8 5 -12 -4 -12 -8 0 -12 7 -11
16 5 22 4 21 12 21 3 0 3 -3 0 -7z m-1079 -108 c-3 -3 -9 2 -12 12 -6 14 -5
15 5 6 7 -7 10 -15 7 -18z m19 -20 c0 -8 -4 -12 -9 -9 -5 3 -6 10 -3 15 9 13
12 11 12 -6z m33 -9 c0 -2 -8 -10 -17 -17 -16 -13 -17 -12 -4 4 13 16 21 21
21 13z m940 -62 c0 -8 -19 -13 -24 -6 -3 5 1 9 9 9 8 0 15 -2 15 -3z m-29 -21
c13 -16 12 -17 -3 -4 -10 7 -18 15 -18 17 0 8 8 3 21 -13z m-868 -11 c15 -16
15 -19 2 -19 -8 0 -13 3 -10 5 3 3 0 11 -6 19 -17 20 -5 16 14 -5z m840 -27
c-3 -9 -8 -14 -10 -11 -3 3 -2 9 2 15 9 16 15 13 8 -4z m-16 -52 c0 -9 -4 -10
-14 -2 -7 6 -13 12 -13 14 0 1 6 2 13 2 8 0 14 -6 14 -14z m-771 -35 c4 -6 3
-8 -4 -4 -5 3 -13 0 -15 -6 -3 -8 -6 -6 -6 5 -1 19 14 23 25 5z m734 -32 c0
-3 -4 -8 -10 -11 -5 -3 -10 -1 -10 4 0 6 5 11 10 11 6 0 10 -2 10 -4z m-619
-169 c-6 -8 -7 -18 -3 -22 4 -5 1 -5 -6 -1 -10 6 -10 11 -1 22 6 8 14 14 16
14 3 0 0 -6 -6 -13z m380 -234 c13 -16 12 -17 -3 -4 -17 13 -22 21 -14 21 2 0
10 -8 17 -17z m-24 -38 c0 -8 -4 -12 -9 -9 -5 3 -6 10 -3 15 9 13 12 11 12 -6z
m-33 -63 c3 -5 -1 -9 -9 -9 -8 0 -12 4 -9 9 3 4 7 8 9 8 2 0 6 -4 9 -8z m-59
-102 c-3 -5 -12 -10 -18 -10 -7 0 -6 4 3 10 19 12 23 12 15 0z"/>
</g>
</svg>
