<?xml version="1.0" encoding="utf-8"?>
<!-- Generator: Adobe Illustrator 27.8.0, SVG Export Plug-In . SVG Version: 6.00 Build 0)  -->
<svg version="1.1" id="Layer_1" xmlns="http://www.w3.org/2000/svg" xmlns:xlink="http://www.w3.org/1999/xlink" x="0px" y="0px"
	 viewBox="0 0 300 300" style="enable-background:new 0 0 300 300;" xml:space="preserve">
<style type="text/css">
	.st0{fill:#FFFFFF;stroke:#FFFFFF;stroke-width:5.3333;stroke-miterlimit:21.3333;}
</style>
<g id="SVGRepo_bgCarrier">
</g>
<g id="SVGRepo_tracerCarrier">
</g>
<g>
	<path class="st0" d="M150,61.1c7.1,0,12.8-5.7,12.8-12.8V22.8c0-7.1-5.7-12.8-12.8-12.8c-7.1,0-12.8,5.7-12.8,12.8v25.5
		C137.2,55.4,142.9,61.1,150,61.1z"/>
	<path class="st0" d="M150,239.9c-7.1,0-12.8,5.7-12.8,12.8v25.5c0,7.1,5.7,12.8,12.8,12.8c7.1,0,12.8-5.7,12.8-12.8v-25.5
		C162.8,245.6,157.1,239.9,150,239.9z"/>
	<path class="st0" d="M231.1,87.3l18.5-17.9c4.4-5.4,4.4-13.1,0-18.5c-5.4-4.4-13.1-4.4-18.5,0l-17.9,18.5
		c-5.6,4.2-6.8,12.2-2.6,17.9c4.2,5.6,12.2,6.8,17.9,2.6C229.5,89.1,230.4,88.2,231.1,87.3z"/>
	<path class="st0" d="M68.9,213.7l-18.5,17.9c-4.4,5.4-4.4,13.1,0,18.5c5.4,4.4,13.1,4.4,18.5,0l17.9-18.5
		c5.6-4.2,6.8-12.2,2.6-17.9c-4.2-5.6-12.2-6.8-17.9-2.6C70.5,211.9,69.6,212.8,68.9,213.7z"/>
	<path class="st0" d="M277.7,137.7h-25.5c-7.1,0-12.8,5.7-12.8,12.8s5.7,12.8,12.8,12.8h25.5c7.1,0,12.8-5.7,12.8-12.8
		S284.8,137.7,277.7,137.7z"/>
	<path class="st0" d="M60.6,150.5c0-7.1-5.7-12.8-12.8-12.8H22.3c-7.1,0-12.8,5.7-12.8,12.8s5.7,12.8,12.8,12.8h25.5
		C54.9,163.3,60.6,157.6,60.6,150.5z"/>
	<path class="st0" d="M231.1,213.7c-4.2-5.6-12.2-6.8-17.9-2.6c-5.6,4.2-6.8,12.2-2.6,17.9c0.7,1,1.6,1.8,2.6,2.6l17.9,18.5
		c4,6.2,12.3,8.1,18.5,4.1c6.2-4,8.1-12.3,4.1-18.5c-1-1.6-2.4-3-4.1-4.1L231.1,213.7z"/>
	<path class="st0" d="M68.9,87.3c5.6,4.2,13.6,3.1,17.9-2.6c3.4-4.5,3.4-10.8,0-15.3L68.9,50.9c-5.4-4.4-13.1-4.4-18.5,0
		C46,56.3,46,64,50.4,69.4L68.9,87.3z"/>
	<path class="st0" d="M150,86.6c-35.3,0-63.9,28.6-63.9,63.9s28.6,63.9,63.9,63.9s63.9-28.6,63.9-63.9S185.3,86.6,150,86.6z"/>
</g>
</svg>
